# xmcd
#
# Track frame offsets:
#	150
#	21787
#	46050
#	58952
#	79302
#	95407
#	116822
#	132646
#	158914
#	183349
#	203239
#
# Disc length: 2890 seconds
#
# Revision: 1
# Processed by: cddbd v1.4PL0 Copyright (c) Steve Scherf et al.
# Submitted via: CDmax 2.0
#
DISCID=9a0b480b
DTITLE=Various Artist - Songs for ShabFas to learn
DYEAR=2003
DGENRE=R&b
TTITLE0=Thank You for lettin' me be myself
TTITLE1=I wanna take you higher
TTITLE2=Tired be being alone
TTITLE3=Fishnet Stockings
TTITLE4=I just wanna make love to you
TTITLE5=She's Gone
TTITLE6=Respect Yourself
TTITLE7=Pilgrim
TTITLE8=Inside of me
TTITLE9=Sweetest Taboo
TTITLE10=Groove me
EXTD=
EXTT0=
EXTT1=
EXTT2=
EXTT3=
EXTT4=
EXTT5=
EXTT6=
EXTT7=
EXTT8=
EXTT9=
EXTT10=
PLAYORDER=
